<?xml version="1.0" standalone="no"?>
<!DOCTYPE svg PUBLIC "-//W3C//DTD SVG 20010904//EN"
 "http://www.w3.org/TR/2001/REC-SVG-20010904/DTD/svg10.dtd">
<svg version="1.0" xmlns="http://www.w3.org/2000/svg"
 width="1440.000000pt" height="1440.000000pt" viewBox="0 0 1440.000000 1440.000000"
 preserveAspectRatio="xMidYMid meet">
<metadata>
Created by potrace 1.11, written by Peter Selinger 2001-2013
</metadata>
<g transform="translate(0.000000,1440.000000) scale(0.100000,-0.100000)"
fill="#000000" stroke="none">
<path d="M0 7200 l0 -7200 7200 0 7200 0 0 7200 0 7200 -7200 0 -7200 0 0
-7200z m3079 1665 c30 -35 31 -39 31 -130 l0 -95 -315 0 -315 0 0 130 0 130
284 0 284 0 31 -35z m521 -65 l0 -100 -135 0 -135 0 0 -30 0 -30 -75 0 -75 0
0 123 c0 68 3 127 7 130 3 4 98 7 210 7 l203 0 0 -100z m490 0 l0 -100 -140 0
-140 0 0 -30 0 -30 -70 0 -70 0 0 130 0 130 210 0 210 0 0 -100z m485 0 l0
-95 -137 -3 -138 -3 0 -29 0 -30 -70 0 -70 0 0 130 0 130 208 -2 207 -3 0 -95z
m275 98 c0 -2 18 -57 40 -123 22 -66 40 -123 40 -127 0 -4 -63 -8 -140 -8
l-140 0 0 130 0 130 100 0 c55 0 100 -1 100 -2z m325 -128 l0 -125 -72 -3 -73
-3 0 131 0 131 73 -3 72 -3 0 -125z m583 110 c35 -29 52 -82 52 -165 l0 -75
-78 0 c-77 0 -78 0 -89 30 l-11 30 -117 0 -116 0 -10 -30 c-11 -29 -12 -30
-81 -30 l-70 0 4 101 3 101 35 29 34 29 211 0 c191 -1 212 -2 233 -20z m527
-80 l0 -95 -137 -3 -138 -3 0 -29 0 -30 -70 0 -70 0 0 130 0 130 208 -2 207
-3 0 -95z m-523 -285 c37 -34 48 -81 48 -208 0 -120 -12 -161 -55 -195 -27
-21 -37 -22 -271 -22 l-244 0 0 95 0 95 194 0 c202 0 225 5 210 44 -5 14 -28
16 -169 16 l-163 0 -26 30 c-28 34 -46 87 -46 138 l0 32 248 0 247 0 27 -25z
m-3142 -115 l0 -120 159 0 c197 0 191 -4 191 142 l0 98 70 0 70 0 0 -181 0
-181 -34 -34 -34 -34 -281 0 -281 0 0 215 0 215 70 0 70 0 0 -120z m880 25 l0
-95 -85 0 c-84 0 -85 0 -85 -25 l0 -25 140 0 140 0 0 -95 0 -95 -215 0 -215 0
0 215 0 215 160 0 160 0 0 -95z m490 0 l0 -95 -90 0 -90 0 0 -120 0 -120 -70
0 -70 0 0 215 0 215 160 0 160 0 0 -95z m485 0 l0 -90 -87 -3 c-86 -3 -88 -3
-88 -27 l0 -25 145 0 146 0 -3 -92 -3 -93 -212 -3 -213 -2 0 215 0 216 158 -3
157 -3 0 -90z m315 -120 l0 -215 -70 0 -70 0 0 215 0 215 70 0 70 0 0 -215z
m213 153 l26 -63 1 63 0 63 73 -3 72 -3 0 -210 0 -210 -115 -3 -115 -3 -68
210 c-37 115 -67 212 -67 215 0 3 38 6 84 6 l84 0 25 -62z m1182 -33 l0 -90
-87 -3 c-86 -3 -88 -3 -88 -27 l0 -25 145 0 146 0 -3 -92 -3 -93 -212 -3 -213
-2 0 215 0 216 158 -3 157 -3 0 -90z m258 -515 c31 -29 32 -32 35 -130 l4
-100 -316 0 -316 0 0 95 c0 94 1 96 33 130 l32 35 248 0 248 0 32 -30z m448 3
c13 -35 51 -171 57 -205 l4 -28 -124 0 -125 0 35 130 36 130 53 0 c49 0 54 -2
64 -27z m795 11 c41 -28 54 -65 54 -159 l0 -85 -79 0 -78 0 -6 30 -6 30 -114
0 c-117 0 -137 -6 -137 -42 0 -16 -9 -18 -75 -18 l-75 0 0 68 c1 94 14 141 47
168 27 23 34 23 236 24 177 0 211 -2 233 -16z m534 -84 l0 -100 -135 0 -135 0
0 -30 0 -30 -75 0 -75 0 0 123 c0 68 3 127 7 130 3 4 98 7 210 7 l203 0 0
-100z m-533 -277 c42 -28 53 -69 53 -207 0 -132 -8 -168 -43 -201 -20 -19 -37
-20 -274 -23 l-253 -3 0 95 0 96 203 2 202 3 0 25 0 25 -163 3 c-178 3 -183 4
-215 67 -12 25 -22 93 -18 128 1 4 109 7 241 7 210 0 244 -2 267 -17z m-1697
-105 c0 -147 -17 -138 262 -138 l228 0 0 -95 0 -95 -281 0 -281 0 -34 34 -34
34 0 181 0 181 70 0 70 0 0 -102z m1042 -38 c21 -74 47 -166 58 -205 11 -38
20 -74 20 -78 0 -4 -33 -7 -72 -5 l-72 3 -18 60 c-9 33 -24 86 -33 118 l-16
57 -69 0 -69 0 -11 -42 c-6 -24 -17 -63 -25 -88 -7 -25 -17 -60 -20 -77 l-7
-33 -74 0 c-41 0 -74 4 -74 8 0 5 6 28 14 53 8 24 28 96 46 159 17 63 38 136
47 163 l15 47 161 -2 161 -3 38 -135z m1088 45 l0 -95 -85 0 c-84 0 -85 0 -85
-25 l0 -25 140 0 140 0 0 -95 0 -95 -215 0 -215 0 0 215 0 215 160 0 160 0 0
-95z m-34 -472 c3 -16 19 -71 35 -124 16 -53 29 -99 29 -103 0 -3 -56 -6 -125
-6 -139 0 -134 -3 -111 71 7 24 22 73 32 109 9 36 19 68 21 73 2 4 29 7 58 7
51 0 55 -2 61 -27z m484 25 c0 -2 18 -57 40 -123 22 -66 40 -123 40 -127 0 -4
-63 -8 -140 -8 l-140 0 0 130 0 130 100 0 c55 0 100 -1 100 -2z m325 -128 l0
-125 -72 -3 -73 -3 0 131 0 131 73 -3 72 -3 0 -125z m410 85 c24 -78 43 -150
50 -182 l7 -33 -127 0 c-106 0 -126 2 -122 14 3 8 20 67 38 131 l32 116 55 -3
c55 -3 55 -3 67 -43z m415 -85 l0 -130 -70 0 -70 0 0 130 0 130 70 0 70 0 0
-130z m545 64 l38 -67 36 67 36 66 82 0 c45 0 84 -3 86 -7 3 -5 -27 -63 -65
-131 l-70 -123 -111 3 -112 3 -67 115 c-37 63 -67 121 -68 128 0 9 24 12 89
12 l89 0 37 -66z m822 49 c38 -25 53 -72 53 -163 l0 -80 -80 0 c-72 0 -80 2
-80 19 0 35 -23 42 -141 39 -111 -3 -113 -3 -119 -28 -5 -23 -10 -25 -78 -28
l-72 -3 0 86 c0 94 8 118 48 152 26 22 34 23 235 23 179 0 211 -2 234 -17z
m253 -113 l0 -130 -70 0 -70 0 0 130 0 130 70 0 70 0 0 -130z m587 113 c38
-25 53 -72 53 -163 l0 -80 -80 0 c-72 0 -80 2 -80 19 0 35 -23 42 -141 39
-111 -3 -113 -3 -119 -28 -5 -23 -10 -25 -78 -28 l-72 -3 0 86 c0 94 8 118 48
152 26 22 34 23 235 23 179 0 211 -2 234 -17z m-2393 -159 c10 -25 7 -112 -4
-119 -19 -12 -43 43 -35 82 10 56 26 71 39 37z m1551 -200 c41 -27 55 -82 55
-213 0 -137 -8 -168 -53 -198 -32 -22 -41 -23 -275 -23 l-242 0 0 95 0 95 199
0 c191 0 200 1 206 20 3 11 3 24 0 30 -4 6 -70 10 -169 10 -156 0 -163 1 -184
23 -26 28 -52 98 -52 143 l0 34 245 0 c206 0 250 -3 270 -16z m840 0 c41 -27
55 -82 55 -213 0 -137 -8 -168 -53 -198 -32 -22 -41 -23 -275 -23 l-242 0 0
95 0 95 199 0 c191 0 200 1 206 20 3 11 3 24 0 30 -4 6 -70 10 -169 10 -158 0
-163 1 -185 24 -24 26 -51 103 -51 148 l0 28 245 0 c206 0 250 -3 270 -16z
m-3714 -99 c43 -146 89 -312 89 -324 0 -8 -23 -11 -72 -9 l-72 3 -10 35 c-5
19 -19 71 -31 115 l-23 80 -69 3 -70 3 -32 -121 -33 -120 -69 0 c-62 0 -69 2
-69 20 0 10 20 90 45 177 25 87 50 175 55 196 l11 37 161 -2 162 -3 27 -90z
m299 -120 l0 -215 -70 0 -70 0 0 215 0 215 70 0 70 0 0 -215z m213 153 l26
-63 1 63 0 63 73 -3 72 -3 0 -210 0 -210 -115 -3 -115 -3 -68 210 c-37 115
-67 212 -67 215 0 3 38 6 84 6 l84 0 25 -62z m681 50 c2 -7 25 -89 51 -183 26
-93 51 -183 56 -199 5 -16 9 -31 9 -32 0 -2 -33 -4 -73 -4 l-73 0 -34 120 -35
120 -67 0 -67 0 -15 -52 c-9 -29 -24 -82 -35 -118 l-19 -65 -71 -3 c-39 -2
-71 0 -71 3 0 5 27 105 55 205 6 25 23 84 36 133 l24 87 163 0 c121 0 164 -3
166 -12z m318 -105 l3 -118 143 -3 142 -3 0 -94 0 -95 -215 0 -215 0 0 215 0
215 70 0 69 0 3 -117z m646 -95 l-3 -213 -72 -3 -73 -3 0 216 0 215 75 0 75 0
-2 -212z m972 -3 l0 -215 -70 0 -70 0 0 215 0 215 70 0 70 0 0 -215z"/>
</g>
</svg>
